<?xml version="1.0" standalone="no"?>
<!DOCTYPE svg PUBLIC "-//W3C//DTD SVG 20010904//EN"
 "http://www.w3.org/TR/2001/REC-SVG-20010904/DTD/svg10.dtd">
<svg version="1.0" xmlns="http://www.w3.org/2000/svg"
 width="603.000000pt" height="603.000000pt" viewBox="0 0 603.000000 603.000000"
 preserveAspectRatio="xMidYMid meet">
<metadata>
Created by potrace 1.11, written by Peter Selinger 2001-2013
</metadata>
<g transform="translate(0.000000,603.000000) scale(0.100000,-0.100000)"
fill="#000000" stroke="none">
<path d="M255 6023 l190 -3 690 -688 690 -687 -685 688 c-377 378 -680 687
-675 687 5 0 315 -305 687 -677 l678 -678 187 185 c632 623 1171 1165 1167
1172 -3 4 -706 7 -1562 6 -856 -2 -1471 -4 -1367 -5z"/>
<path d="M4012 4018 l-2003 -2002 -707 707 -707 707 40 42 c21 24 -110 -106
-292 -287 l-331 -331 -7 -1374 c-4 -756 -5 -1397 -3 -1425 l3 -50 980 977 980
978 980 -980 c539 -539 987 -980 995 -980 8 0 -431 445 -975 990 -544 544
-985 990 -980 990 6 0 456 -446 1000 -990 l990 -990 1022 0 1023 0 0 3010 c0
1656 -1 3010 -2 3010 -2 0 -904 -901 -2006 -2002z"/>
</g>
</svg>
